<?xml version="1.0" encoding="utf-8"?>
<!-- Generator: Adobe Illustrator 23.0.1, SVG Export Plug-In . SVG Version: 6.00 Build 0)  -->
<svg version="1.1" id="Calque_1" xmlns="http://www.w3.org/2000/svg" xmlns:xlink="http://www.w3.org/1999/xlink" x="0px" y="0px"
	 viewBox="0 0 432 432" style="enable-background:new 0 0 432 432;" xml:space="preserve">
<style type="text/css">
	.st0{fill:#282828;}
	.st1{fill:#C0864D;}
	.st2{fill:#BF9C63;}
	.st3{fill:#D67388;}
	.st4{fill:#74AAAF;}
	.st5{fill:#F2ACA5;}
	.st6{fill:#A47B9B;}
	.st7{fill:#D5A8B2;}
	.st8{fill:#B6C8A3;}
	.st9{fill:#3C3C3B;}
	.st10{fill:#E1AD73;}
	.st11{fill:#354F2C;}
	.st12{fill:#9E1D28;}
	.st13{fill:#3E6689;}
	.st14{fill:#036838;}
	.st15{fill:#C7D2D8;}
	.st16{fill:#7D95B2;}
	.st17{fill:#E6E5E5;}
	.st18{fill:#80171B;}
	.st19{fill:#6595AA;}
	.st20{fill:#162640;}
	.st21{fill:#634E42;}
	.st22{fill:#EBCCD2;}
	.st23{fill:#362317;}
	.st24{fill:#C74E26;}
	.st25{fill:#827270;}
	.st26{fill:#EC6C78;}
	.st27{fill:#3C628E;}
	.st28{fill:#544841;}
	.st29{fill:#88525A;}
	.st30{fill:#EA94AA;}
	.st31{fill:#EF8491;}
	.st32{fill:#466C8C;}
	.st33{fill:#BF8E72;}
	.st34{fill:#8A2F2F;}
	.st35{fill:#3F4F45;}
	.st36{fill:#C58247;}
	.st37{fill:#A1272D;}
	.st38{fill:#DFEBF2;}
	.st39{fill:#ABB9CE;}
	.st40{fill:#333333;}
	.st41{fill:#9B3947;}
	.st42{fill:#4D4D4D;}
	.st43{fill:#C2B19F;}
	.st44{fill:#B0C268;}
	.st45{fill:#D98880;}
	.st46{fill:#D95548;}
	.st47{fill:#BA2314;}
	.st48{fill:#CC8A56;}
	.st49{fill:#E6E6E6;}
	.st50{fill:#728290;}
	.st51{fill:#CDDDEC;}
	.st52{fill:#DCE0E3;}
</style>
<g>
	<g>
		<path class="st0" d="M103.79,142.841c-3.961,0-7.921,0-11.88,0c-1.889,0-2.25-0.27-2.341-2.16c0-2.07-0.538-57.146-0.538-59.035
			c0-1.53,0.18-1.799,1.62-1.799c4.409-0.09,8.82-0.18,13.139-0.27c1.709,0,1.798,0.09,1.889,1.71c0,2.699,0.45,49.406,0.45,59.035
			C106.129,142.302,105.768,142.751,103.79,142.841z"/>
		<g>
			<path class="st0" d="M167.678,131.322c-1.349-0.989-1.889-0.9-2.788,0.451c-0.272,0.359-0.541,0.719-0.81,1.079
				c-2.161,2.97-7.11,7.29-11.971,5.669c-0.719-17.549-0.45-36.986-0.719-54.806c3.24,0.361,6.659,2.43,8.459,4.23
				c0.541,0.541,1.079,1.081,1.62,1.62c0.269,0.27,0.719,0.54,0.99,0.451c0.99-0.27,1.889-0.721,2.339-1.71
				c0.45-0.81-0.18-1.44-0.719-1.98c-1.981-2.43-4.32-4.41-7.199-5.58c-1.44-0.63-3.06-1.079-4.591-1.26
				c-3.69-0.359-6.928,0.99-9.719,3.24c-3.421,2.699-5.668,6.299-7.019,10.348c-3.779,11.07-3.329,24.029,0.63,34.918
				c1.709,4.859,4.68,8.818,8.82,11.878c2.699,1.981,5.76,3.15,9.089,2.97c6.57-0.359,11.25-3.6,14.038-9.54
				C168.58,132.312,168.489,131.952,167.678,131.322z"/>
			<path class="st0" d="M207.094,81.826c-0.541-1.8-1.262-2.25-3.151-2.25c-3.51,0-7.019,0.09-10.529,0.09
				c-1.709,0-2.788,0.63-3.329,2.34c-1.44,4.409-12.06,37.347-15.93,49.496c-0.899,2.79-1.618,5.669-2.428,8.549
				c-0.541,1.889,0,2.609,2.07,2.79c0.538,0,8.01,0,11.159,0c2.159,0,2.791-0.359,3.51-2.429c0.089-0.27,7.74-25.019,7.921-25.559
				c4.498,0,9.089,0,13.678,0c0.089,0.359,4.409,17.188,6.3,25.018c0.719,2.88,0.358,3.06,4.228,2.97c1.531,0,1.711-0.27,1.26-1.799
				C221.312,138.792,208.442,86.596,207.094,81.826z M197.733,109.904c1.889-6.929,4.139-13.679,6.57-20.429
				c1.44,6.75,2.969,13.41,4.589,20.429C205.113,109.904,201.512,109.904,197.733,109.904z"/>
			<path class="st0" d="M268.103,79.757c-0.63-0.09-1.171-0.18-1.62-0.09c-1.171,0-2.159,0.989-2.07,2.25
				c0.63,18.268,1.171,36.627,1.8,55.165c-0.18-0.27-0.272-0.359-0.361-0.54c-3.51-8.19-21.509-53.725-22.497-55.796
				c-0.361-0.809-0.81-1.26-1.8-1.169c-4.411,0.18-8.909,0.18-13.32,0.361c-1.349,0-1.709,0.359-1.709,1.799c0,3.329,0,6.57,0,9.899
				c0,3.24,0.269,44.457,0.361,49.136c0,1.26,0.988,2.16,2.159,2.16c4.409,0.09,8.909,0,13.32-0.09c0.719,0,1.349-0.54,1.349-1.26
				c0.18-1.62,0.18-41.757,0.18-42.027c0.45,0.18,1.8,3.33,1.889,3.69c0.721,1.62,13.411,31.228,15.569,36.447
				c0.269,0.721,0.721,1.44,1.079,2.161c0.272,0.63,0.721,0.989,1.44,0.989c1.62,0.18,3.24,0.18,4.861,0.09
				c1.529-0.09,2.699-1.35,2.611-2.79c-0.272-19.529-0.541-38.967-1.351-58.315C269.992,80.746,269.182,79.847,268.103,79.757z"/>
			<path class="st0" d="M292.035,80.116c-1.26-0.09-3.779,0.09-6.57,0.09c-1.8,0-2.699,0.63-3.421,2.16
				c-1.44,3.33-5.219,11.88-5.488,12.869c-0.452,1.44,0,2.07,1.529,2.16c2.25,0.09,4.589,0,6.93,0c1.079,0,1.8-0.54,2.25-1.53
				c1.978-4.589,4.048-9.269,6.029-13.858C293.836,80.656,293.564,80.206,292.035,80.116z"/>
			<path class="st0" d="M342.968,80.926c0-0.72-0.45-1.169-1.168-1.26c-0.361-0.09-41.127-0.09-41.668,0
				c-1.079,0.09-1.62,0.63-1.62,1.799c0,1.71,0.901,2.88,1.8,2.88c0.18,0.09,10.8,0.18,11.608,0.18c0,1.62,0.721,54.806,0.81,56.785
				c0,1.35,0.361,1.62,1.711,1.8c0.63,0,12.149,0.269,14.219,0.18c1.62-0.09,1.889-0.361,1.978-1.981
				c0-0.63-0.45-55.975-0.45-56.966c0.541,0,7.11-0.179,9.99-0.179C343.148,84.166,342.968,82.636,342.968,80.926z"/>
		</g>
	</g>
	<g>
		<path class="st2" d="M127.835,260.393c-1.132-0.423-2.401-0.423-3.529-0.564c-1.837-0.141-3.674-0.141-5.647-0.141
			c-0.141-0.848-0.282-1.271-0.423-1.837c-5.647-24.704-10.449-49.409-17.365-73.69c-1.696-6.07-3.106-12.141-4.801-18.07
			c-0.846-2.824-1.692-3.39-4.516-3.249c-4.378,0.284-8.894,0.425-13.414,0.707c-1.128,0.141-2.256,0.141-3.247,0.564
			c-0.705,0.282-1.551,0.848-1.692,1.553c-0.282,1.13,0.705,1.553,1.692,1.835c1.132,0.284,2.26,0.566,3.67,0.989
			c-5.502,30.352-11.15,60.703-18.211,90.773c-1.833,0.425-3.388,0.707-5.08,1.13c-0.564,0.282-1.273,0.989-1.273,1.553
			c0,0.425,0.85,1.271,1.414,1.412c1.692,0.423,3.388,0.848,5.221,0.848c6.497,0.141,12.991,0.141,19.484,0.282
			c0.846,0,1.696,0,2.542,0c2.401-0.141,3.67-0.989,3.67-2.542s-1.128-2.399-3.388-2.683c-0.705,0-1.414-0.141-2.401-0.282
			c0.705-3.952,1.414-7.764,1.978-11.434c9.176,0,18.07,0,26.964,0c0.987,4.093,1.833,7.905,2.965,12.282c-1.837,0-3.247,0-4.66,0
			c-0.987,0.141-1.978,0.282-2.965,0.423c-0.987,0.282-1.833,0.848-1.692,1.976c0,1.13,0.846,1.553,1.692,1.837
			c0.705,0.282,1.555,0.282,2.26,0.282c6.07,0.141,12.141,0.282,18.211,0.423c0.846,0,1.837-0.141,2.683-0.705
			c0.564-0.284,1.269-1.271,1.269-1.837C129.104,261.522,128.399,260.534,127.835,260.393z M74.894,259.122c-2.965,0-5.506,0-8.33,0
			c3.106-15.105,6.497-30.07,9.18-45.034c2.82-14.962,5.221-30.07,7.762-45.598c1.696,0,3.529,0,5.788,0
			C84.493,198.841,79.695,228.911,74.894,259.122z M83.788,241.336c1.696-10.447,3.529-20.753,5.083-31.2
			c1.551-10.306,2.824-20.612,4.375-30.918c5.365,20.471,10.59,40.94,14.682,62.117C99.884,241.336,91.977,241.336,83.788,241.336z"
			/>
		<path class="st2" d="M176.402,172.02c-4.942-5.647-11.154-8.471-18.493-8.894c-4.942-0.284-9.885,0-14.823,0
			c-0.991,0-1.978,0.282-2.824,0.846c-0.564,0.282-1.132,1.271-1.132,1.835c0,0.707,0.709,1.553,1.273,1.837
			c0.705,0.423,1.551,0.423,2.401,0.564c1.128,0.141,2.256,0.282,3.388,0.423c-0.141,30.211-1.978,59.999-0.846,90.209
			c-0.991,0.141-1.414,0.141-1.978,0.282c-0.846,0.141-1.837,0.284-2.683,0.566c-1.555,0.564-2.26,1.694-1.978,2.824
			c0.423,1.412,1.414,1.976,2.683,1.976c0.564,0,1.273,0,1.837,0c5.224-0.141,10.445-0.282,15.669-0.564
			c4.66-0.284,9.176-0.848,13.695-2.119c7.057-1.976,12-6.352,14.823-13.13c1.692-3.952,2.538-8.046,3.106-12.282
			c1.41-12.846,0.705-25.552-1.696-38.257C186.988,188.394,183.036,179.643,176.402,172.02z M157.059,258.276
			c-2.115,0-3.952,0.141-6.211,0.282c-0.141-1.13-0.282-2.117-0.282-3.106c0-11.011,0-22.024,0.141-33.034
			c0.141-9.599,0.423-19.341,0.709-28.94c0.282-8.189,0.564-16.376,0.705-24.847c1.974,0,4.093,0,6.211,0
			C156.918,198.418,157.768,228.206,157.059,258.276z M184.45,236.959c-0.427,2.965-1.132,5.786-2.119,8.61
			c-1.978,5.647-5.647,9.46-11.577,10.729c-2.542,0.566-4.942,0.989-7.907,1.553c-0.282-29.645,0.991-58.726,0.141-88.091
			c3.247,0.564,5.647,2.26,7.766,4.518c5.365,5.647,9.035,12.282,11.013,19.623c2.115,7.482,2.824,15.105,3.388,22.729
			C185.437,223.407,185.578,230.182,184.45,236.959z"/>
		<path class="st2" d="M258.422,163.126c-0.705-0.284-1.551-0.425-2.397-0.425c-5.224-0.141-10.59,0-15.673,1.13
			c-2.538,0.423-3.67,1.271-3.388,2.401c0.568,1.835,2.26,1.835,3.674,1.835c1.41,0.141,2.965,0.141,4.657,0.141
			c0,0.989,0,1.694,0,2.401c-0.423,17.786-0.846,35.433-1.41,53.08c-0.282,6.916-1.132,13.694-2.683,20.328
			c-0.85,3.39-1.837,6.636-3.815,9.601c-1.551,2.399-3.67,4.377-6.493,5.363c-2.256-1.835-2.965-4.377-3.388-6.775
			c-0.423-3.39-0.846-6.777-1.128-10.024c-0.423-7.059-0.846-14.117-1.132-21.317c-0.705-16.517-1.41-33.175-2.115-49.834
			c0-0.566,0.141-1.13,0.282-1.835c0.705-0.141,1.269-0.141,1.974-0.141c0.991-0.143,1.837-0.707,2.119-1.837
			c0.141-1.271-0.705-1.976-1.833-2.399c-0.709-0.282-1.555-0.566-2.401-0.566c-5.788-0.423-11.577-0.987-17.365-1.128
			c-1.41-0.141-2.824,0.423-4.234,0.987c-0.427,0.141-0.991,1.13-0.991,1.694c0,0.425,0.709,1.271,1.132,1.553
			c0.846,0.425,1.974,0.566,3.247,0.848c0,1.13,0,2.117,0,3.247c0.423,18.211,0.705,36.563,1.269,54.776
			c0.141,6.493,0.846,12.987,2.683,19.339c1.555,5.647,4.093,10.872,8.612,14.964c6.493,5.929,14.259,6.07,21.035,0.282
			c3.67-3.106,5.788-7.198,7.339-11.575c1.837-5.365,2.683-11.013,3.247-16.658c1.132-11.013,1.696-22.165,1.696-33.457
			c0-9.319,0-18.636,0-28.094c0-0.848,0-1.835,0-3.106c1.551,0,2.824,0,4.093,0c1.132-0.141,2.401-0.282,3.533-0.707
			c0.705-0.282,1.41-1.128,1.551-1.976C260.4,164.113,259.413,163.549,258.422,163.126z M219.885,254.181
			c-3.674-4.236-5.788-9.458-6.493-14.964c-0.991-7.482-1.696-14.964-1.978-22.588c-0.423-14.117-0.564-28.235-0.846-42.492
			c0-1.694,0-3.388,0-5.506c2.397,0.141,4.516,0.282,6.775,0.425c0.141,0.564,0.282,1.128,0.282,1.553
			c-0.564,13.835,0.282,27.669,0.987,41.363c0.564,8.612,0.85,17.222,1.273,25.834c0.282,6.07,0.564,12,1.692,18.07
			C221.013,255.452,220.449,254.888,219.885,254.181z"/>
		<path class="st2" d="M315.037,245.853c-1.128,0.141-1.837,0.987-1.978,2.117c-0.141,1.835-0.141,3.67-0.282,5.506
			c0,1.835,0,3.67-0.141,5.504c-6.352,0.282-12.564,0.425-18.775,0.566c-0.705-30.777-0.282-61.128-1.837-91.621
			c0.423-0.141,0.705-0.141,0.991-0.282c1.41-0.143,2.824-0.143,4.093-0.425c1.128-0.282,1.837-0.987,1.692-2.258
			c0-0.989-0.705-1.694-1.692-1.835c-0.987-0.141-2.119-0.284-3.247-0.284c-6.775,0.143-13.414,0.284-20.189,0.425
			c-0.564,0-1.128,0-1.551,0c-1.273,0.282-2.26,0.705-2.401,1.976c-0.141,1.412,0.846,2.117,1.974,2.401
			c1.273,0.282,2.683,0.564,4.237,0.846c0.282,30.07,0.423,60.14,0.705,90.491c-1.269,0.141-2.401,0.282-3.388,0.425
			c-1.269,0.282-2.542,0.705-2.542,2.117s1.273,1.976,2.401,2.258c1.128,0.284,2.26,0.284,3.247,0.425
			c12.564,0.846,24.986,0,37.409-0.425c2.26,0,3.251-0.987,3.533-3.388c0.141-2.258,0.141-4.377,0.141-6.634
			c0-1.978-0.141-3.813-0.282-5.788C317.015,246.699,316.306,245.853,315.037,245.853z M282.284,259.406
			c-0.141-1.13-0.141-1.978-0.141-2.965c-0.282-22.447-0.282-45.034-0.564-67.481c0-6.07-0.282-12.141-0.423-18.211
			c0-0.707,0-1.412,0-2.401c1.974,0,3.811,0,5.788,0c0.423,30.211,0.705,60.422,1.128,91.057
			C286.095,259.406,284.262,259.406,282.284,259.406z"/>
		<path class="st2" d="M377.436,166.514c-0.282-1.976-1.41-2.683-3.388-2.683c-11.154-0.282-22.304-0.423-33.316-0.705
			c-3.247,0-6.493,0.141-9.74,0.423c-2.824,0.282-3.815,1.13-3.956,3.952c-0.282,3.249-0.141,6.495,0,9.742
			c0,0.564,0,1.271,0.282,1.553c0.568,0.564,1.414,1.412,2.119,1.412c0.564,0,1.414-0.848,1.837-1.412
			c0.423-0.564,0.423-1.271,0.423-1.835c0.141-2.26,0.141-4.377,0.282-6.636c0-0.564,0.141-1.269,0.141-1.976
			c3.247,0,6.352,0,9.176,0c0,30.634,0,60.844,0,91.339c-1.978,0-3.67,0-5.365,0c-0.987,0-1.974,0-2.683,0.282
			c-0.846,0.282-1.692,1.13-1.833,1.694c0,0.707,0.705,1.835,1.41,2.117c1.273,0.425,2.824,0.707,4.237,0.848
			c8.753,0,17.506,0,26.114,0c0.991,0,2.119,0.141,3.106,0c1.273-0.282,2.119-1.13,2.26-2.401c0-1.269-0.705-2.399-2.119-2.681
			c-0.705-0.141-1.269-0.141-1.974-0.141c-1.273,0-2.401,0-3.811,0c-0.286-30.636-0.427-60.846-0.709-91.057
			c4.238,0,8.471,0,12.85,0c0,2.26-0.141,4.236,0,6.211c0,1.13,0.282,2.401,0.846,3.388c0.282,0.707,1.269,1.271,2.119,1.271
			c0.564,0,1.269-0.846,1.833-1.412c0.282-0.282,0.423-0.987,0.423-1.553C377.859,173.007,377.859,169.76,377.436,166.514z
			 M354.142,213.665c0,7.623,0,15.246,0,22.87c0,7.482,0,14.964,0,22.872c-1.974,0-3.952,0-6.493,0
			c-0.282-30.354,0.705-60.705-0.423-91.198c2.401,0,4.66,0,7.198,0c0.286,7.623-0.423,15.246-0.423,22.729
			C354.142,198.559,354.142,206.041,354.142,213.665z"/>
	</g>
	<g>
		<path class="st0" d="M151.652,290.188c0-0.72-0.45-1.169-1.168-1.26c-0.361-0.09-41.127-0.09-41.668,0
			c-1.079,0.09-1.62,0.63-1.62,1.799c0,1.71,0.901,2.88,1.8,2.88c0.18,0.09,10.8,0.18,11.608,0.18c0,1.62,0.721,54.806,0.81,56.785
			c0,1.35,0.361,1.62,1.711,1.8c0.63,0,12.149,0.269,14.219,0.179c1.62-0.089,1.889-0.359,1.978-1.98
			c0-0.63-0.45-55.975-0.45-56.966c0.541,0,7.11-0.179,9.99-0.179C151.832,293.429,151.652,291.899,151.652,290.188z"/>
		<path class="st0" d="M180.897,296.938c-1.351-2.16-2.88-4.139-4.949-5.669c-4.05-2.79-8.19-3.24-12.69-1.081
			c-3.779,1.889-6.478,4.949-8.19,8.639c-1.168,2.43-1.978,5.04-2.608,7.649c-1.351,5.49-1.44,11.07-1.62,15.839
			c-0.091,4.68,0.269,8.55,0.99,12.329c0.899,4.41,2.519,8.55,5.399,12.06c3.51,4.32,10.259,6.57,15.57,5.13
			c4.409-1.351,7.649-4.05,9.899-8.009c1.44-2.34,2.339-4.949,2.88-7.65c1.798-8.729,1.709-17.458,0.18-26.187
			C184.856,305.397,183.327,300.987,180.897,296.938z M179.277,340.404c-0.81,2.07-1.981,3.87-3.599,5.49
			c-1.531,1.62-3.421,2.339-5.76,2.429c-0.361-18.719-0.632-37.257-0.99-55.885c1.709,0.09,3.06,0.63,4.228,1.62
			c2.25,1.799,3.69,4.229,4.86,6.749c1.981,4.41,3.421,9.09,3.959,13.859C183.056,323.486,182.697,332.035,179.277,340.404z"/>
		<path class="st0" d="M214.37,292.348c-2.519-2.07-5.49-3.329-8.82-3.329c-2.43-0.09-4.769-0.18-7.108-0.18
			c-1.711,0-3.421,0.09-5.13,0.18c-0.901,0-1.351,0.54-1.44,1.44c0,0.269,0.089,49.676,0.269,59.305c0,1.891,0.45,2.34,2.339,2.34
			c4.05,0,8.01,0.09,12.06-0.09c3.421-0.09,6.75-0.63,9.719-2.429c8.01-4.68,11.971-11.88,12.509-20.968
			c0.45-7.47-0.81-15.479-3.779-22.408C222.649,300.717,219.051,296.128,214.37,292.348z M224.18,329.065
			c-0.361,8.1-5.76,15.658-13.139,18.269c-0.63,0.18-1.171,0.269-1.8,0.54c-0.361-17.728-0.538-36.087-0.899-53.815
			c1.62,0.54,2.788,1.44,3.87,2.339c3.868,3.511,6.389,7.921,8.548,12.6C223.639,315.116,224.541,322.315,224.18,329.065z"/>
		<path class="st0" d="M264.584,291.089c-0.541-1.8-1.262-2.25-3.151-2.25c-3.51,0-7.019,0.09-10.529,0.09
			c-1.709,0-2.788,0.63-3.329,2.34c-1.44,4.41-12.06,37.347-15.93,49.496c-0.899,2.79-1.618,5.669-2.428,8.549
			c-0.541,1.889,0,2.609,2.07,2.79c0.538,0,8.01,0,11.159,0c2.159,0,2.791-0.359,3.51-2.43c0.089-0.269,7.74-25.018,7.921-25.557
			c4.498,0,9.089,0,13.678,0c0.089,0.361,4.409,17.189,6.3,25.018c0.719,2.88,0.358,3.06,4.228,2.97c1.531,0,1.711-0.269,1.26-1.799
			C278.802,348.054,265.932,295.858,264.584,291.089z M255.223,319.166c1.889-6.93,4.139-13.679,6.57-20.429
			c1.44,6.75,2.969,13.41,4.589,20.429C262.603,319.166,259.002,319.166,255.223,319.166z"/>
		<path class="st0" d="M324.061,289.198c-0.358-0.089-11.159-0.269-13.497-0.359c-1.351,0-1.62,0.18-1.981,1.26
			c-0.361,0.99-4.048,10.079-5.579,13.949c-1.349,3.329-2.611,6.66-4.139,10.35c-0.361-0.99-0.541-1.53-0.81-2.071
			c-2.699-7.199-5.399-13.499-8.19-20.698c-1.079-2.79-0.81-2.79-4.32-2.79c-1.079,0-1.889,0.359-1.44,2.16
			c3.329,9.63,6.57,18.089,10.529,27.448c1.082,2.429,0.99,4.41,0,6.839c-3.329,8.28-6.389,16.649-9.627,25.019
			c-0.63,1.709-0.452,1.98,1.349,1.98c4.411-0.09,8.731-0.18,13.05-0.18c2.07-0.09,2.25-0.09,2.969-2.07
			c1.981-5.13,22.228-58.945,22.408-59.396C324.872,290.098,324.694,289.288,324.061,289.198z"/>
	</g>
</g>
</svg>
